# xmcd
#
# Track frame offsets: 
#        150
#        14377
#        31262
#        47754
#        66384
#        84654
#        99227
#        117983
#        136061
#        152472
#        172408
#        188911
#        203608
#        229319
#        249712
#        267648
#        289752
#        311031
#        325239
#        343107
#
# Disc length: 4791 seconds
#
# Revision: 0
# Processed by: cddbd v1.5.2PL0 Copyright (c) Steve Scherf et al.
# Submitted via: ExactAudioCopy v0.99pb5
#
DISCID=2812b514
DTITLE=Григорий Лепс - Бей прямо в сердце
DYEAR=2011
DGENRE=Chanson
TTITLE0=Бей прямо в сердце
TTITLE1=Обернитесь (дуэт с В.Меладзе)
TTITLE2=Измены (дуэт с В.Ильинской)
TTITLE3=Водопад
TTITLE4=Берега
TTITLE5=Я тебя не люблю
TTITLE6=Бессоница
TTITLE7=Черный снегопад
TTITLE8=Лодка
TTITLE9=Беги по небу
TTITLE10=Озеро надежды
TTITLE11=Ты опоздала
TTITLE12=Свои
TTITLE13=Вьюга
TTITLE14=Слова
TTITLE15=Дорога
TTITLE16=Натали
TTITLE17=Парус
TTITLE18=Я тебе не верю (дуэт с И.Аллегровой)
TTITLE19=Она не твоя (дуэт с С.Пьехой)
EXTD=
EXTT0=
EXTT1=
EXTT2=
EXTT3=
EXTT4=
EXTT5=
EXTT6=
EXTT7=
EXTT8=
EXTT9=
EXTT10=
EXTT11=
EXTT12=
EXTT13=
EXTT14=
EXTT15=
EXTT16=
EXTT17=
EXTT18=
EXTT19=
PLAYORDER=
